<svg width="190" height="32" viewBox="0 0 190 32" fill="none" xmlns="http://www.w3.org/2000/svg">
<path d="M10 7.48C11.68 7.48 12.6 9.08 12.6 10.6C12.6 12 12.04 15.24 10.16 15.24C9.68 15.24 9.16 15.12 8.76 14.88C9.44 13.72 9.88 10.84 10.04 9.44C5.6 12.68 3.52 20.04 3.52 25.32C3.52 25.72 3.52 26.16 3.6 26.56C5.8 24.84 7.24 22.12 8.2 19.56C9.16 19.88 9.84 20.8 9.84 21.76C9.84 24.2 6.56 28.52 3.92 28.52C3.24 28.52 2.6 27.88 2.16 27.44C0.92 27.12 0.8 24.88 0.8 23.88C0.8 18.76 3.52 11.48 7.56 8.24C7.8 8.04 8.24 7.68 8.56 7.68C8.68 7.68 8.76 7.72 8.84 7.76C9.2 7.6 9.6 7.48 10 7.48ZM22.3375 8.36C22.5775 14.52 23.0175 20.8 23.0175 26.96C23.0175 27.68 21.7375 27.72 21.2175 27.72C20.9375 27.72 20.6575 27.72 20.3775 27.68L20.1375 22.6L15.3775 22.8C14.3775 24.88 13.3775 26.96 12.3375 29C11.6975 28.92 9.9375 28.52 9.9375 27.68C9.9375 27.36 12.4975 22.12 12.7375 21.56C12.5775 20.88 12.4175 20.28 13.2975 20.28C15.3775 15.84 17.4575 11.44 19.5375 7C20.2575 7.04 21.1775 7.32 21.6175 7.92L22.3375 8.36ZM16.6575 20.08L20.0175 19.84L19.7375 13.48C18.7375 15.68 17.6975 17.88 16.6575 20.08ZM38.9834 10.6C39.1834 11.12 39.3034 11.68 39.3034 12.28C39.3034 16 35.2234 19.12 32.2234 20.6L36.3434 28.12C35.9434 28.6 35.2234 29.08 34.5834 29.08C33.8634 29.08 33.4634 28.6 33.1034 28.04C31.7434 25.96 30.6234 23.64 29.4234 21.44C29.3034 21.92 27.5834 28.28 27.5434 28.36C27.3034 28.72 26.8634 28.84 26.4634 28.84C25.9034 28.84 25.3434 28.64 24.8634 28.36L29.7034 10.4C28.7034 10.88 27.7434 11.48 26.8234 12.16C26.4634 11.68 26.2234 11 26.2234 10.4C26.2234 7.8 32.4234 6.84 34.4234 6.84C36.6634 6.84 39.0234 7.56 39.0234 10.24C39.0234 10.36 39.0234 10.48 38.9834 10.6ZM30.2634 18.48C33.1434 17.24 35.6634 15.12 37.1434 12.32C37.3034 12.04 37.7434 11.12 37.7834 10.76L37.8234 10.56C37.8234 9.44 36.0634 9.32 35.3034 9.32C34.1034 9.32 32.8634 9.52 31.7034 9.76C32.0234 9.92 32.3834 10.24 32.3834 10.64C32.3834 11 30.4634 17.72 30.2634 18.48ZM52.2897 12.52C52.4897 12.96 52.5697 13.4 52.5697 13.88C52.5697 18.08 46.3297 24.6 43.3697 27.4C43.1697 27.6 41.4497 29.2 41.2497 29.28C41.1697 29.32 41.1297 29.32 41.0497 29.32C40.8097 29.32 40.2497 28.64 40.1297 28.44C39.5297 28.44 39.0497 28.24 38.5297 27.96L43.2497 10.4C43.0897 10.48 41.6497 11.16 41.5297 11.16C40.8897 11.16 40.3297 9.52 40.1697 9C42.0497 7.4 44.6097 6.72 47.0497 6.72C50.0097 6.72 52.4497 7.96 52.4497 11.2C52.4497 11.64 52.4097 12.08 52.2897 12.52ZM42.0097 25.12C45.2897 22.12 50.3697 16.44 50.3697 11.6C50.3697 10 49.4497 9.32 47.9297 9.32C47.2097 9.32 46.4497 9.44 45.7297 9.64C45.8897 9.76 46.0097 10 46.0097 10.2C46.0097 11.16 42.4897 23.32 42.0097 25.12ZM61.9653 9.2C64.5786 9.2 66.512 9.77333 67.7653 10.92C69.0186 12.0667 69.6453 13.8933 69.6453 16.4V31H67.0853L66.4053 27.96H66.2453C65.632 28.7333 64.992 29.3867 64.3253 29.92C63.6853 30.4267 62.9386 30.8 62.0853 31.04C61.2586 31.28 60.2453 31.4 59.0453 31.4C57.7653 31.4 56.6053 31.1733 55.5653 30.72C54.552 30.2667 53.752 29.5733 53.1653 28.64C52.5786 27.68 52.2853 26.48 52.2853 25.04C52.2853 22.9067 53.1253 21.2667 54.8053 20.12C56.4853 18.9467 59.072 18.3067 62.5653 18.2L66.2053 18.08V16.8C66.2053 15.0133 65.8186 13.7733 65.0453 13.08C64.272 12.3867 63.1786 12.04 61.7653 12.04C60.6453 12.04 59.5786 12.2133 58.5653 12.56C57.552 12.88 56.6053 13.2533 55.7253 13.68L54.6453 11.04C55.5786 10.5333 56.6853 10.1067 57.9653 9.76C59.2453 9.38667 60.5786 9.2 61.9653 9.2ZM63.0053 20.64C60.3386 20.7467 58.4853 21.1733 57.4453 21.92C56.432 22.6667 55.9253 23.72 55.9253 25.08C55.9253 26.28 56.2853 27.16 57.0053 27.72C57.752 28.28 58.6986 28.56 59.8453 28.56C61.6586 28.56 63.1653 28.0667 64.3653 27.08C65.5653 26.0667 66.1653 24.52 66.1653 22.44V20.52L63.0053 20.64ZM67.6053 0.759998C67.3653 1.13333 67.0186 1.58666 66.5653 2.12C66.112 2.65333 65.6053 3.21333 65.0453 3.8C64.512 4.36 63.9653 4.90666 63.4053 5.44C62.872 5.94667 62.3653 6.38667 61.8853 6.76H59.5653V6.28C59.9653 5.77333 60.392 5.17333 60.8453 4.48C61.3253 3.78667 61.792 3.08 62.2453 2.36C62.6986 1.61333 63.072 0.946666 63.3653 0.359999H67.6053V0.759998ZM89.3872 10.84C89.5472 11.24 89.6272 11.68 89.6272 12.12C89.6272 15.84 84.0672 21.68 80.3472 21.68C80.1872 21.68 79.9872 21.48 79.9072 21.4C79.7872 21.88 77.9872 28.56 77.9472 28.6C77.7072 28.96 77.2272 29.08 76.8672 29.08C76.3072 29.08 75.7472 28.88 75.2672 28.6L80.1072 10.64C79.1072 11.12 78.1472 11.72 77.2272 12.4C76.8672 11.92 76.6272 11.24 76.6272 10.64C76.6272 8.04 82.7872 7.08 84.8272 7.08C87.0672 7.08 89.4272 7.8 89.4272 10.48C89.4272 10.6 89.4272 10.72 89.3872 10.84ZM80.6672 18.72C83.5472 17.48 86.0672 15.36 87.5472 12.56C87.7072 12.28 88.1472 11.36 88.1872 11L88.2272 10.8C88.2272 9.68 86.4672 9.56 85.7072 9.56C84.5072 9.56 83.2672 9.76 82.1072 10C82.4272 10.16 82.7872 10.48 82.7872 10.88C82.7872 11.24 80.8672 17.96 80.6672 18.72ZM94.8619 8C95.2619 8.44 96.0619 9.44 96.0619 10C96.0619 10.52 94.5019 10.56 94.1419 10.64C94.4619 10.8 94.5419 11.08 94.5419 11.44C94.5419 12.76 91.4619 23.12 90.9019 25.16L91.2619 25.12C91.6619 25.56 92.3419 26.44 92.3419 27.04C92.3419 27.84 88.9019 27.92 88.2219 28C87.7019 27.64 86.8219 26.92 86.8219 26.24C86.8219 26.08 86.8619 25.92 86.9819 25.8L88.0619 25.6L92.0619 10.88H91.8219C91.3019 10.52 90.4219 9.8 90.4219 9.12C90.4219 8.96 90.4619 8.8 90.5819 8.68L94.8619 8ZM104.808 7.72C107.888 7.96 109.328 11.24 109.328 13.96C109.328 17.96 104.848 28.88 100.128 28.88C99.6884 28.88 99.2884 28.76 98.9284 28.52C98.8084 28.52 98.6884 28.52 98.6084 28.52C96.2084 28.52 95.3684 25.64 95.3684 23.68C95.3684 19.08 98.9684 9.28 103.288 7.12C103.848 7.16 104.368 7.4 104.808 7.72ZM99.2084 26.88C103.048 24.4 107.208 16.08 107.208 11.56C107.208 11.08 107.208 10.12 106.488 10.12C105.768 10.12 105.208 10.68 104.488 10.68C104.168 10.68 103.848 10.52 103.648 10.28C100.848 13.76 98.2484 18.8 98.2484 23.36C98.2484 24.32 98.4484 26.12 99.2084 26.88ZM128.949 7.72C132.029 7.96 133.469 11.24 133.469 13.96C133.469 17.96 128.989 28.88 124.269 28.88C123.829 28.88 123.429 28.76 123.069 28.52C122.949 28.52 122.829 28.52 122.749 28.52C120.349 28.52 119.509 25.64 119.509 23.68C119.509 19.08 123.109 9.28 127.429 7.12C127.989 7.16 128.509 7.4 128.949 7.72ZM123.349 26.88C127.189 24.4 131.349 16.08 131.349 11.56C131.349 11.08 131.349 10.12 130.629 10.12C129.909 10.12 129.349 10.68 128.629 10.68C128.309 10.68 127.989 10.52 127.789 10.28C124.989 13.76 122.389 18.8 122.389 23.36C122.389 24.32 122.589 26.12 123.349 26.88ZM146.65 8.2C147.69 8.24 148.81 8.8 148.81 9.96C148.81 10.4 144.41 26.84 144.25 27.16C144.09 27.48 143.45 27.64 143.13 27.64C142.57 27.64 142.01 27.44 141.53 27.16L141.57 27.08L140.89 26.76L138.41 14.68C138.09 15.88 135.17 27 134.97 27.32C134.77 27.68 134.25 27.8 133.89 27.8C133.33 27.8 132.77 27.6 132.29 27.32L137.41 8.36C137.73 8.36 138.09 8.4 138.41 8.48C138.61 8.32 138.81 8.28 139.05 8.28C139.37 8.28 139.69 8.4 139.97 8.52L142.81 22.48L146.65 8.2ZM154.22 24.16C154.7 24.56 155.62 25.4 155.62 26.04C155.62 26.4 155.38 26.52 155.1 26.64C153.62 27.4 150.66 28.2 148.94 28.8C148.34 28.52 147.18 27.84 147.18 27.12C147.18 27 147.22 26.88 147.26 26.76L148.02 26.48L147.34 26.16L152.46 7.2C153.5 7.24 154.62 7.8 154.62 9C154.62 10.24 150.82 23.36 150.18 25.64L154.22 24.16ZM164.237 8C164.637 8.44 165.437 9.44 165.437 10C165.437 10.52 163.877 10.56 163.517 10.64C163.837 10.8 163.917 11.08 163.917 11.44C163.917 12.76 160.837 23.12 160.277 25.16L160.637 25.12C161.037 25.56 161.717 26.44 161.717 27.04C161.717 27.84 158.277 27.92 157.597 28C157.077 27.64 156.197 26.92 156.197 26.24C156.197 26.08 156.237 25.92 156.357 25.8L157.437 25.6L161.437 10.88H161.197C160.677 10.52 159.797 9.8 159.797 9.12C159.797 8.96 159.837 8.8 159.957 8.68L164.237 8ZM177.743 8.2C178.783 8.24 179.903 8.8 179.903 9.96C179.903 10.4 175.503 26.84 175.343 27.16C175.183 27.48 174.543 27.64 174.223 27.64C173.663 27.64 173.103 27.44 172.623 27.16L172.663 27.08L171.983 26.76L169.503 14.68C169.183 15.88 166.263 27 166.063 27.32C165.863 27.68 165.343 27.8 164.983 27.8C164.423 27.8 163.863 27.6 163.383 27.32L168.503 8.36C168.823 8.36 169.183 8.4 169.503 8.48C169.703 8.32 169.903 8.28 170.143 8.28C170.463 8.28 170.783 8.4 171.063 8.52L173.903 22.48L177.743 8.2ZM188.354 7.52C188.754 8 189.514 9.12 189.514 9.48C189.514 10.24 185.834 10.96 185.234 11.12L183.754 16.52C183.954 16.44 186.234 15.52 186.274 15.52C187.114 15.52 187.634 17.16 187.794 17.84L182.874 19.8C182.354 21.64 181.914 23.48 181.354 25.28C181.834 25 185.154 23.12 185.754 23.12C186.314 23.12 186.994 24.6 187.234 25.24C186.474 25.64 181.194 28.48 180.754 28.48C180.554 28.48 180.034 27.88 179.794 27.6C179.394 27.4 178.474 26.92 178.354 26.48L182.674 10.48C182.474 10.24 182.034 9.72 182.034 9.4C182.034 9.32 182.074 9.24 182.194 9.2L188.354 7.52Z" fill="black"/>
</svg>
